<svg width="600" height="400" viewBox="0 0 600 400" xmlns="http://www.w3.org/2000/svg">
  <!-- Background elements -->
  <rect x="50" y="50" width="500" height="300" rx="10" fill="#f0f4ff" />
  
  <!-- Dashboard frame -->
  <rect x="70" y="70" width="460" height="260" rx="6" fill="#ffffff" stroke="#e0e6ff" stroke-width="2" />
  
  <!-- Header bar -->
  <rect x="70" y="70" width="460" height="40" rx="6" fill="#4963eb" />
  
  <!-- Navigation sidebar -->
  <rect x="70" y="110" width="100" height="220" fill="#f8faff" />
  
  <!-- Main content area -->
  <rect x="180" y="120" width="340" height="100" rx="4" fill="#f0f4ff" />
  
  <!-- Chart elements -->
  <rect x="190" y="130" width="150" height="80" rx="4" fill="#ffffff" stroke="#e0e6ff" stroke-width="1" />
  <circle cx="265" cy="170" r="35" fill="none" stroke="#4963eb" stroke-width="6" stroke-dasharray="160 40" />
  <circle cx="265" cy="170" r="35" fill="none" stroke="#6d83eb" stroke-width="6" stroke-dasharray="40 160" stroke-dashoffset="40" />
  
  <!-- Stats card -->
  <rect x="350" y="130" width="160" height="80" rx="4" fill="#ffffff" stroke="#e0e6ff" stroke-width="1" />
  <line x1="360" y1="150" x2="410" y2="150" stroke="#4963eb" stroke-width="3" />
  <line x1="360" y1="170" x2="440" y2="170" stroke="#e5e9ff" stroke-width="3" />
  <line x1="360" y1="190" x2="430" y2="190" stroke="#e5e9ff" stroke-width="3" />
  
  <!-- Table -->
  <rect x="180" y="230" width="340" height="90" rx="4" fill="#ffffff" stroke="#e0e6ff" stroke-width="1" />
  <line x1="180" y1="250" x2="520" y2="250" stroke="#e5e9ff" stroke-width="1" />
  <line x1="180" y1="270" x2="520" y2="270" stroke="#e5e9ff" stroke-width="1" />
  <line x1="180" y1="290" x2="520" y2="290" stroke="#e5e9ff" stroke-width="1" />
  <line x1="300" y1="230" x2="300" y2="320" stroke="#e5e9ff" stroke-width="1" />
  <line x1="420" y1="230" x2="420" y2="320" stroke="#e5e9ff" stroke-width="1" />
  
  <!-- Navigation icons -->
  <rect x="85" y="130" width="70" height="8" rx="4" fill="#4963eb" opacity="0.7" />
  <rect x="85" y="150" width="70" height="8" rx="4" fill="#e5e9ff" />
  <rect x="85" y="170" width="70" height="8" rx="4" fill="#e5e9ff" />
  <rect x="85" y="190" width="70" height="8" rx="4" fill="#e5e9ff" />
  <rect x="85" y="210" width="70" height="8" rx="4" fill="#e5e9ff" />
  
  <!-- Decorative elements -->
  <circle cx="480" cy="90" r="6" fill="#ffffff" opacity="0.7" />
  <circle cx="500" cy="90" r="6" fill="#ffffff" opacity="0.7" />
  <circle cx="520" cy="90" r="6" fill="#ffffff" opacity="0.7" />
</svg> 