<svg width="14" height="20" viewBox="0 0 14 20" fill="none" xmlns="http://www.w3.org/2000/svg">
<g opacity="0.75" clip-path="url(#clip0_2_25115)">
<g clip-path="url(#clip1_2_25115)">
<g clip-path="url(#clip2_2_25115)">
<path d="M2.90936 17H0.383301V7.89655H2.90936V17ZM0.383301 4H2.90936V6.65517H0.383301V4Z" fill="white"/>
<path d="M5.16498 7.89662H7.69104V8.39662C8.262 8.17248 9.71534 7.60352 10.5631 7.60352C11.4109 7.60352 12.0684 7.81041 12.5701 8.32766C13.1238 8.89662 13.3833 9.70697 13.3833 11.5518V17.0001H10.8572V11.6725C10.8572 11.069 10.8572 10.6035 10.615 10.2759C10.4247 10.0345 10.0787 10.0345 9.76725 10.0345C9.16169 10.0345 8.15819 10.4311 7.69104 10.6208V17.0001H5.16498V7.89662Z" fill="white"/>
</g>
</g>
</g>
<defs>
<clipPath id="clip0_2_25115">
<rect width="14" height="13" fill="white" transform="translate(0 4)"/>
</clipPath>
<clipPath id="clip1_2_25115">
<rect width="14" height="13" fill="white" transform="translate(0 4)"/>
</clipPath>
<clipPath id="clip2_2_25115">
<rect width="14" height="13" fill="white" transform="translate(0 4)"/>
</clipPath>
</defs>
</svg>
