<svg width="500" height="350" viewBox="0 0 500 350" fill="none" xmlns="http://www.w3.org/2000/svg">
  <!-- Background -->
  <rect width="500" height="350" rx="8" fill="#F8FAFF"/>
  
  <!-- Task Board -->
  <rect x="50" y="60" width="400" height="240" rx="6" fill="white" stroke="#E0E6FF" stroke-width="2"/>
  
  <!-- Header -->
  <rect x="50" y="60" width="400" height="50" rx="6" fill="#4963EB"/>
  <text x="70" y="90" font-family="Arial" font-size="16" font-weight="bold" fill="white">Gerenciamento de Tarefas</text>
  <circle cx="420" cy="85" r="10" fill="white" fill-opacity="0.3"/>
  <circle cx="390" cy="85" r="10" fill="white" fill-opacity="0.3"/>
  
  <!-- Task Columns -->
  <rect x="60" y="120" width="120" height="170" rx="4" fill="#F0F4FF"/>
  <rect x="190" y="120" width="120" height="170" rx="4" fill="#F0F4FF"/>
  <rect x="320" y="120" width="120" height="170" rx="4" fill="#F0F4FF"/>
  
  <!-- Column Headers -->
  <text x="95" y="140" font-family="Arial" font-size="12" font-weight="bold" fill="#4963EB">Pendentes</text>
  <text x="220" y="140" font-family="Arial" font-size="12" font-weight="bold" fill="#4963EB">Em Progresso</text>
  <text x="355" y="140" font-family="Arial" font-size="12" font-weight="bold" fill="#4963EB">Concluídas</text>
  
  <!-- Task Cards -->
  <rect x="70" y="150" width="100" height="70" rx="4" fill="white" stroke="#E0E6FF" stroke-width="1"/>
  <rect x="75" y="160" width="60" height="8" rx="4" fill="#4963EB" fill-opacity="0.7"/>
  <rect x="75" y="175" width="90" height="5" rx="2.5" fill="#E5E9FF"/>
  <rect x="75" y="185" width="75" height="5" rx="2.5" fill="#E5E9FF"/>
  <rect x="75" y="195" width="85" height="5" rx="2.5" fill="#E5E9FF"/>
  
  <rect x="70" y="230" width="100" height="50" rx="4" fill="white" stroke="#E0E6FF" stroke-width="1"/>
  <rect x="75" y="240" width="50" height="8" rx="4" fill="#4963EB" fill-opacity="0.7"/>
  <rect x="75" y="255" width="90" height="5" rx="2.5" fill="#E5E9FF"/>
  <rect x="75" y="265" width="60" height="5" rx="2.5" fill="#E5E9FF"/>
  
  <rect x="200" y="150" width="100" height="90" rx="4" fill="white" stroke="#E0E6FF" stroke-width="1"/>
  <rect x="205" y="160" width="70" height="8" rx="4" fill="#6D83EB" fill-opacity="0.7"/>
  <rect x="205" y="175" width="90" height="5" rx="2.5" fill="#E5E9FF"/>
  <rect x="205" y="185" width="85" height="5" rx="2.5" fill="#E5E9FF"/>
  <rect x="205" y="195" width="75" height="5" rx="2.5" fill="#E5E9FF"/>
  <rect x="205" y="210" width="55" height="5" rx="2.5" fill="#E5E9FF"/>
  <rect x="205" y="220" width="75" height="5" rx="2.5" fill="#E5E9FF"/>
  
  <rect x="330" y="150" width="100" height="60" rx="4" fill="white" stroke="#E0E6FF" stroke-width="1"/>
  <rect x="335" y="160" width="65" height="8" rx="4" fill="#1FBB87" fill-opacity="0.7"/>
  <rect x="335" y="175" width="90" height="5" rx="2.5" fill="#E5E9FF"/>
  <rect x="335" y="185" width="70" height="5" rx="2.5" fill="#E5E9FF"/>
  <rect x="335" y="195" width="80" height="5" rx="2.5" fill="#E5E9FF"/>
  
  <rect x="330" y="220" width="100" height="50" rx="4" fill="white" stroke="#E0E6FF" stroke-width="1"/>
  <rect x="335" y="230" width="55" height="8" rx="4" fill="#1FBB87" fill-opacity="0.7"/>
  <rect x="335" y="245" width="90" height="5" rx="2.5" fill="#E5E9FF"/>
  <rect x="335" y="255" width="65" height="5" rx="2.5" fill="#E5E9FF"/>
</svg> 