<svg width="17" height="20" viewBox="0 0 17 20" fill="none" xmlns="http://www.w3.org/2000/svg">
<g opacity="0.75" clip-path="url(#clip0_2_25110)">
<g clip-path="url(#clip1_2_25110)">
<g clip-path="url(#clip2_2_25110)">
<path d="M16.3833 9.64246V11.5762L16.3345 12.73C16.3129 13.0875 16.2912 13.3529 16.2695 13.5262C16.237 14.0462 16.1341 14.5337 15.9608 14.9887C15.7116 15.6604 15.2133 16.0829 14.4658 16.2562C14.3141 16.2887 14.0866 16.3158 13.7833 16.3375C13.545 16.3591 13.1929 16.3808 12.7271 16.4025H12.6783C12.6025 16.4133 12.4887 16.4187 12.3371 16.4187L11.3295 16.4512L8.8758 16.5L5.80455 16.4675L4.60205 16.435C4.42872 16.435 4.16872 16.4241 3.82205 16.4025L3.5133 16.3862C3.24247 16.3754 3.03663 16.3645 2.8958 16.3537H2.87955C2.38122 16.3104 2.00747 16.2454 1.7583 16.1587C1.16247 15.9529 0.761634 15.5683 0.555801 15.005C0.425801 14.6475 0.339134 14.3279 0.295801 14.0462C0.284967 13.9595 0.274134 13.8295 0.263301 13.6562L0.247051 13.4612C0.225384 13.2879 0.203717 13.0279 0.182051 12.6812C0.160384 12.4429 0.149551 12.2587 0.149551 12.1287C0.138717 11.6412 0.133301 10.91 0.133301 9.93496C0.133301 9.76163 0.144134 9.50163 0.165801 9.15496V9.10621C0.187467 8.70538 0.209134 8.40746 0.230801 8.21246C0.274134 7.8008 0.317467 7.49205 0.360801 7.28621C0.436634 6.86371 0.566634 6.50621 0.750801 6.21371C1.02163 5.76954 1.42247 5.48246 1.9533 5.35246C2.1808 5.30913 2.41372 5.27663 2.65205 5.25496C2.90122 5.23329 3.26413 5.21163 3.7408 5.18996L5.1058 5.14121C6.18913 5.11954 7.00163 5.10871 7.5433 5.10871C7.9008 5.09788 8.44247 5.09788 9.1683 5.10871H9.96455C10.2462 5.10871 10.6579 5.11954 11.1996 5.14121C11.4921 5.14121 11.9091 5.15204 12.4508 5.17371L13.3446 5.22246C13.7237 5.24413 14.0108 5.26579 14.2058 5.28746C14.8016 5.35246 15.2783 5.59621 15.6358 6.01871C15.7983 6.20288 15.9175 6.43038 15.9933 6.70121C16.1016 7.06955 16.1775 7.35121 16.2208 7.54621C16.2316 7.62205 16.2425 7.74663 16.2533 7.91996L16.2858 8.30996C16.3075 8.4833 16.3183 8.6133 16.3183 8.69996V8.73246C16.34 8.92746 16.3508 9.07371 16.3508 9.17121V9.64246H16.3833ZM6.58455 12.9087L10.9721 10.6337L6.58455 8.34246V12.9087Z" fill="white"/>
</g>
</g>
</g>
<defs>
<clipPath id="clip0_2_25110">
<rect width="17" height="12" fill="white" transform="translate(0 4.5)"/>
</clipPath>
<clipPath id="clip1_2_25110">
<rect width="17" height="12" fill="white" transform="translate(0 4.5)"/>
</clipPath>
<clipPath id="clip2_2_25110">
<rect width="17" height="12" fill="white" transform="translate(0 4.5)"/>
</clipPath>
</defs>
</svg>
